<svg width="45" height="45" viewBox="0 0 45 45" fill="none" xmlns="http://www.w3.org/2000/svg">
<path d="M22.5 4.57031C18.9539 4.57031 15.4873 5.62187 12.5388 7.59201C9.59028 9.56215 7.29219 12.3624 5.93514 15.6386C4.57808 18.9148 4.22301 22.5199 4.91483 25.9979C5.60666 29.4759 7.31429 32.6707 9.8218 35.1782C12.3293 37.6857 15.5241 39.3934 19.0021 40.0852C22.4801 40.777 26.0852 40.4219 29.3614 39.0649C32.6376 37.7078 35.4379 35.4097 37.408 32.4612C39.3781 29.5127 40.4297 26.0462 40.4297 22.5C40.4241 17.7465 38.5333 13.1892 35.172 9.82796C31.8108 6.4667 27.2535 4.5759 22.5 4.57031ZM22.5 38.3203C19.371 38.3203 16.3124 37.3925 13.7107 35.6541C11.1091 33.9157 9.08135 31.445 7.88395 28.5542C6.68654 25.6634 6.37325 22.4825 6.98368 19.4136C7.59411 16.3448 9.10085 13.5259 11.3134 11.3133C13.5259 9.10084 16.3448 7.5941 19.4136 6.98367C22.4825 6.37324 25.6634 6.68654 28.5542 7.88394C31.445 9.08134 33.9158 11.1091 35.6541 13.7107C37.3925 16.3123 38.3203 19.371 38.3203 22.5C38.3157 26.6944 36.6474 30.7156 33.6815 33.6815C30.7156 36.6474 26.6944 38.3157 22.5 38.3203ZM22.5 13.0078C20.1234 13.0078 18.16 14.0836 16.824 16.1209C15.7236 17.7961 15.1172 20.0619 15.1172 22.5C15.1172 24.9381 15.7236 27.2039 16.8223 28.8791C18.16 30.9164 20.1217 31.9922 22.5 31.9922C24.8783 31.9922 26.84 30.9164 28.176 28.8791C29.2764 27.2039 29.8828 24.9381 29.8828 22.5C29.8828 20.0619 29.2764 17.7961 28.1777 16.1209C26.84 14.0836 24.8766 13.0078 22.5 13.0078ZM22.5 29.8828C18.8578 29.8828 17.2266 26.1756 17.2266 22.5C17.2266 18.8244 18.8578 15.1172 22.5 15.1172C26.1422 15.1172 27.7734 18.8244 27.7734 22.5C27.7734 26.1756 26.1422 29.8828 22.5 29.8828Z" fill="#BA0000"/>
</svg>
